<svg id="visual" viewBox="0 0 900 600" width="900" height="600" xmlns="http://www.w3.org/2000/svg" xmlns:xlink="http://www.w3.org/1999/xlink" version="1.1"><rect x="0" y="0" width="900" height="600" fill="#001220"></rect><defs><linearGradient id="grad1_0" x1="33.3%" y1="0%" x2="100%" y2="100%"><stop offset="20%" stop-color="#001220" stop-opacity="1"></stop><stop offset="80%" stop-color="#001220" stop-opacity="1"></stop></linearGradient></defs><defs><linearGradient id="grad2_0" x1="0%" y1="0%" x2="66.7%" y2="100%"><stop offset="20%" stop-color="#001220" stop-opacity="1"></stop><stop offset="80%" stop-color="#001220" stop-opacity="1"></stop></linearGradient></defs><g transform="translate(900, 0)"><path d="M0 351.5C-62.5 342.9 -125.1 334.4 -175.8 304.4C-226.5 274.5 -265.4 223.3 -292.7 169C-320 114.7 -335.8 57.4 -351.5 0L0 0Z" fill="#216ce7"></path></g><g transform="translate(0, 600)"><path d="M0 -351.5C51.8 -326.1 103.5 -300.6 158.5 -274.5C213.5 -248.4 271.7 -221.6 304.4 -175.8C337.2 -129.9 344.3 -65 351.5 0L0 0Z" fill="#216ce7"></path></g></svg>